<!-- Generated by IcoMoon.io -->
<svg version="1.1" xmlns="http://www.w3.org/2000/svg" width="1027" height="1024" viewBox="0 0 1027 1024">
<title></title>
<g id="icomoon-ignore">
</g>
<path d="M512.134 1.123c119.467 0 238.933-1.707 358.4 0.853 1.179-0.034 2.566-0.053 3.958-0.053 53.45 0 100.251 28.472 126.062 71.077l0.369 0.656c15.731 24.543 25.076 54.489 25.076 86.617 0 38.006-13.077 72.957-34.976 100.6l0.258-0.337c-39.68 64-76.8 129.707-114.347 195.413q-91.648 157.44-183.125 314.88c-44.544 76.8-88.064 153.6-135.168 228.693-10.534 14.553-27.469 23.912-46.59 23.912-0.511 0-1.020-0.007-1.528-0.020l0.075 0.002c-22.040-5.959-40.324-19.334-52.445-37.225l-0.206-0.322c-54.443-90.453-105.472-183.467-157.867-275.627-69.291-121.173-139.008-242.347-208.128-364.373-28.416-50.347-59.733-99.84-82.517-151.893-5.342-14.171-8.434-30.551-8.434-47.654 0-52.505 29.145-98.203 72.14-121.797l0.721-0.363c25.222-12.675 54.773-20.705 86.040-22.168l0.488-0.018c117.077-2.56 234.24-0.853 351.744-0.853zM460.252 435.47c0-106.667 0-213.333 0-320-1.052-4.221-4.312-7.481-8.453-8.516l-0.080-0.017c-98.56-0.853-197.12 0.853-295.68-0.853-1.292-0.139-2.791-0.218-4.309-0.218-23.564 0-42.667 19.103-42.667 42.667 0 9.009 2.792 17.367 7.559 24.253l-0.093-0.142c52.139 84.48 99.925 171.52 149.419 257.707l185.771 322.56c2.202 3.558 4.684 6.637 7.499 9.376l0.011 0.010c0.557-3.164 0.984-6.979 1.185-10.854l0.010-0.239c-0.171-105.813-0.171-210.773-0.171-315.733zM564.529 438.883c0 107.52 0 214.187 0 320.853 0.15 2.191 0.669 4.223 1.496 6.088l-0.045-0.115c1.391-0.785 2.591-1.633 3.699-2.585l-0.030 0.025q64-110.080 128-220.16c68.864-118.613 138.496-237.227 205.739-356.693 4.777-9.030 7.581-19.738 7.581-31.101 0-8.124-1.434-15.914-4.061-23.129l0.15 0.47c-10.741-12.566-26.607-20.48-44.321-20.48-0.048 0-0.097 0-0.145 0h0.007c-96.341-1.707-192.683-0.853-288.939 0-4.212 1.070-7.464 4.322-8.516 8.452l-0.017 0.081c-0.683 105.813-0.597 212.48-0.597 318.293z"></path>
</svg>
